<svg width="42" height="42" viewBox="0 0 42 42" fill="none" xmlns="http://www.w3.org/2000/svg">
<path d="M41.9748 20.9943C41.9748 31.5973 34.1174 40.3631 23.9102 41.7856C22.9557 41.918 21.9793 41.9871 20.9881 41.9871C19.844 41.9871 18.7205 41.8959 17.6264 41.7194C7.63231 40.1101 0 31.4429 0 20.9943C0 9.39977 9.397 0 20.9866 0C32.5763 0 41.9748 9.39977 41.9748 20.9943Z" fill="#1877F2"/>
<path d="M23.9101 16.8565V21.4298H29.5659L28.6704 27.5904H23.9101V41.7842C22.9557 41.9166 21.9792 41.9858 20.988 41.9858C19.8439 41.9858 18.7204 41.8946 17.6263 41.718V27.5904H12.4102V21.4298H17.6263V15.8341C17.6263 12.3625 20.4395 9.547 23.9116 9.547V9.54994C23.9219 9.54994 23.9307 9.547 23.941 9.547H29.5674V14.875H25.891C24.7983 14.875 23.9116 15.762 23.9116 16.855L23.9101 16.8565Z" fill="white"/>
</svg>
