<svg width="43" height="42" viewBox="0 0 43 42" fill="none" xmlns="http://www.w3.org/2000/svg">
<path d="M21.376 0.00012207H21.2804C9.71579 0.00012207 0.34082 9.37785 0.34082 20.9459V21.0415C0.34082 32.6095 9.71579 41.9872 21.2804 41.9872H21.376C32.9406 41.9872 42.3156 32.6095 42.3156 21.0415V20.9459C42.3156 9.37785 32.9406 0.00012207 21.376 0.00012207Z" fill="url(#paint0_linear_159_576)"/>
<path d="M27.8236 8.54224H14.8354C11.2472 8.54224 8.32812 11.4622 8.32812 15.0515V26.9372C8.32812 30.5265 11.2472 33.4465 14.8354 33.4465H27.8236C31.4118 33.4465 34.3309 30.5265 34.3309 26.9372V15.0515C34.3309 11.4622 31.4118 8.54224 27.8236 8.54224ZM10.6237 15.0515C10.6237 12.7287 12.5134 10.8385 14.8354 10.8385H27.8236C30.1456 10.8385 32.0353 12.7287 32.0353 15.0515V26.9372C32.0353 29.26 30.1456 31.1502 27.8236 31.1502H14.8354C12.5134 31.1502 10.6237 29.26 10.6237 26.9372V15.0515Z" fill="white"/>
<path d="M21.3293 27.0477C24.666 27.0477 27.3822 24.3322 27.3822 20.993C27.3822 17.6538 24.6675 14.9384 21.3293 14.9384C17.9911 14.9384 15.2764 17.6538 15.2764 20.993C15.2764 24.3322 17.9911 27.0477 21.3293 27.0477ZM21.3293 17.2361C23.4013 17.2361 25.0866 18.9219 25.0866 20.9945C25.0866 23.0672 23.4013 24.753 21.3293 24.753C19.2572 24.753 17.5719 23.0672 17.5719 20.9945C17.5719 18.9219 19.2572 17.2361 21.3293 17.2361Z" fill="white"/>
<path d="M27.9424 15.9165C28.8409 15.9165 29.5733 15.1854 29.5733 14.2852C29.5733 13.3849 28.8424 12.6538 27.9424 12.6538C27.0424 12.6538 26.3115 13.3849 26.3115 14.2852C26.3115 15.1854 27.0424 15.9165 27.9424 15.9165Z" fill="white"/>
<defs>
<linearGradient id="paint0_linear_159_576" x1="6.47314" y1="35.8531" x2="36.192" y2="6.14447" gradientUnits="userSpaceOnUse">
<stop stop-color="#FAAD4F"/>
<stop offset="0.35" stop-color="#DD2A7B"/>
<stop offset="0.62" stop-color="#9537B0"/>
<stop offset="1" stop-color="#515BD4"/>
</linearGradient>
</defs>
</svg>
