<svg width="42" height="42" viewBox="0 0 42 42" fill="none" xmlns="http://www.w3.org/2000/svg">
<path d="M21.0606 0.00012207H20.965C9.40038 0.00012207 0.0253906 9.37786 0.0253906 20.9459V21.0415C0.0253906 32.6095 9.40038 41.9872 20.965 41.9872H21.0606C32.6252 41.9872 42.0002 32.6095 42.0002 21.0415V20.9459C42.0002 9.37786 32.6252 0.00012207 21.0606 0.00012207Z" fill="#007EBB"/>
<path d="M10.0359 13.9571C9.48299 13.4437 9.20801 12.8082 9.20801 12.0521C9.20801 11.296 9.48446 10.6326 10.0359 10.1177C10.5889 9.60435 11.3006 9.34692 12.1727 9.34692C13.0447 9.34692 13.7286 9.60435 14.28 10.1177C14.833 10.6311 15.108 11.2769 15.108 12.0521C15.108 12.8273 14.8315 13.4437 14.28 13.9571C13.7271 14.4705 13.0256 14.7279 12.1727 14.7279C11.3197 14.7279 10.5889 14.4705 10.0359 13.9571ZM14.6433 16.902V32.6419H9.67123V16.902H14.6433Z" fill="#FEFFFC"/>
<path d="M31.1944 18.4569C32.2782 19.6337 32.8194 21.2488 32.8194 23.3053V32.3638H28.0974V23.9437C28.0974 22.9067 27.8283 22.1006 27.2915 21.5269C26.7547 20.9532 26.0312 20.6649 25.1253 20.6649C24.2195 20.6649 23.4959 20.9517 22.9591 21.5269C22.4224 22.1006 22.1533 22.9067 22.1533 23.9437V32.3638H17.4033V16.8579H22.1533V18.9144C22.6341 18.2289 23.2827 17.6875 24.0974 17.2889C24.9121 16.8902 25.8283 16.6917 26.8474 16.6917C28.6621 16.6917 30.112 17.2801 31.1944 18.4569Z" fill="#FEFFFC"/>
</svg>
