<svg width="43" height="42" viewBox="0 0 43 42" fill="none" xmlns="http://www.w3.org/2000/svg">
<path d="M42.6559 20.9944C42.6559 31.5975 34.7986 40.3632 24.5913 41.7857C23.6369 41.9181 22.6604 41.9872 21.6693 41.9872C20.5251 41.9872 19.4016 41.896 18.3075 41.7195C8.31492 40.1102 0.682617 31.443 0.682617 20.9944C0.682617 9.39989 10.0796 0.00012207 21.6707 0.00012207C33.2618 0.00012207 42.6588 9.39989 42.6588 20.9944H42.6559Z" fill="#1C1C1B"/>
<path d="M9.19409 9.25854L18.8734 22.2035L9.13379 32.7286H11.3264L19.8543 23.5141L26.744 32.7286H34.2042L23.9808 19.0555L33.0469 9.25854H30.8542L23.0013 17.7448L16.6558 9.25854H9.19554H9.19409ZM12.4176 10.8737H15.844L30.9778 31.1134H27.5513L12.4176 10.8737Z" fill="white"/>
</svg>
